<svg width="598" height="168" viewBox="0 0 598 168" fill="none" xmlns="http://www.w3.org/2000/svg">
<g clip-path="url(#clip0_1_2)">
<path d="M319.1 86C315.4 72.1 296.5 78 286.3 74.3C284.7 73.7 284.4 72.8 284 71.3C284.1 69 286.3 67 288.7 65.4C297.2 60 308.5 62.5 315.3 70.1C316.2 71.3 318.3 70.2 317.7 68.7C311.7 51.9 285.4 49.9 276.7 65.8C272.2 74.2 279.7 83.3 288.4 83.5C294.3 84.2 299.9 84.5 305.6 85.1C307.4 85.4 309.4 85.5 310.3 86.5C312.4 89.7 309.5 92.7 306.5 94.7C302.5 97.4 297.7 98.2 293 97.4C288.2 96.6 283.4 94.2 279.8 90.1C279 89 277 90 277.6 91.4C282.2 104.1 299.5 108.9 310.8 101.7C315.7 98.9 321.1 92.6 319.1 86Z" fill="white"/>
<path d="M278.7 103.9C275.2 102 269.8 98 267.7 92.8C267.1 89.9 267.1 87 267.6 84.2V84.3C267.8 83 268 81.6 268 80.2C268 66 256.5 54.5 242.3 54.5C228.1 54.5 216.5 66 216.5 80.1C216.5 94.3 228 105.8 242.2 105.8C249.7 105.8 256.5 102.5 261.2 97.3C266.9 103 272.8 104 277.7 105.6C278.9 106.2 279.8 104.5 278.7 103.9ZM242.2 97.2C232.8 97.2 225.1 89.5 225.1 80.1C225.1 70.7 232.8 63 242.2 63C251.6 63 259.3 70.7 259.3 80.1C259.3 89.6 251.6 97.2 242.2 97.2Z" fill="white"/>
<path d="M189.1 54.6C173.6 52.9 160.4 65.1 160.5 80.3C160.5 108.4 169.2 117.7 176.8 123.6C177.7 124.6 179.2 123.2 178.3 122.2C173.9 117 170.2 108.7 172.8 102C209.3 121.7 230.2 61.8 189.1 54.6ZM187.8 97.2C164.2 98.9 162.7 63.6 186.1 63C207.5 63 209.1 95.1 187.8 97.2Z" fill="white"/>
<path d="M436.7 103.9C433.2 102 427.8 98 425.7 92.8C425.1 89.9 425.1 87 425.6 84.2V84.3C425.8 83 426 81.6 426 80.2C426 66 414.5 54.5 400.3 54.5C386.1 54.5 374.6 66 374.6 80.1C374.6 94.3 386.1 105.8 400.3 105.8C407.8 105.8 414.6 102.5 419.3 97.3C425 103 430.9 104 435.8 105.6C437 106.2 437.9 104.5 436.7 103.9ZM400.3 97.2C390.9 97.2 383.2 89.5 383.2 80.1C383.2 70.7 390.9 63 400.3 63C409.7 63 417.4 70.7 417.4 80.1C417.4 89.6 409.7 97.2 400.3 97.2Z" fill="white"/>
<path d="M369 86C365.3 72.1 346.4 78 336.2 74.3C334.6 73.7 334.3 72.8 333.9 71.3C334 69 336.2 67 338.6 65.4C347.1 60 358.4 62.5 365.2 70.1C366.1 71.3 368.2 70.2 367.6 68.7C361.6 51.9 335.3 49.9 326.6 65.8C322.1 74.2 329.6 83.3 338.3 83.5C344.2 84.2 349.8 84.5 355.5 85.1C357.3 85.4 359.3 85.5 360.2 86.5C362.3 89.7 359.4 92.7 356.4 94.7C352.4 97.4 347.6 98.2 342.9 97.4C338.1 96.6 333.3 94.2 329.7 90.1C328.9 89 326.9 90 327.5 91.4C332.1 104.1 349.4 108.9 360.7 101.7C365.6 98.9 371 92.6 369 86Z" fill="white"/>
<path d="M471.8 102C474.4 108.8 470.7 117.1 466.3 122.2C465.4 123.2 466.9 124.5 467.8 123.6C475.4 117.7 484.1 108.5 484.1 80.3C484.2 65.1 471 52.9 455.5 54.6C414.4 61.8 435.3 121.7 471.8 102ZM458.3 63C481.7 63.5 480.2 98.8 456.6 97.2C435.5 95.1 437 63 458.3 63Z" fill="white"/>
<path d="M535 91.2C524.9 100.4 502.6 100.4 498.9 83.6C505.2 83.3 528.4 88.1 535.9 76.6C544.3 58.9 507.9 42.8 494 67.4C477 95.7 521.3 120.3 537.1 92.7C537.8 91.5 535.9 90.2 535 91.2ZM526.8 75C520.8 79.4 504.4 77.9 499.3 77.3C500.9 64.4 518.8 58.8 527.3 67.4C529.5 69.5 529.3 73.2 526.8 75Z" fill="white"/>
<path d="M85.1 45.8C106.2 45.8 123.2 62.9 123.2 83.9C123.2 105 106.1 122 85.1 122C64.1 122 47 105 47 84C47 63 64.1 45.8 85.1 45.8ZM85.1 42.3C79.5 42.3 74 43.4 68.9 45.6C63.9 47.7 59.5 50.7 55.7 54.5C51.9 58.3 48.9 62.8 46.8 67.7C44.6 72.9 43.5 78.3 43.5 84C43.5 89.7 44.6 95 46.7 100.2C48.8 105.2 51.8 109.6 55.6 113.4C59.4 117.2 63.9 120.2 68.8 122.3C73.9 124.5 79.4 125.6 85 125.6C90.6 125.6 96.1 124.5 101.2 122.3C106.2 120.2 110.6 117.2 114.4 113.4C118.2 109.6 121.2 105.1 123.3 100.2C125.5 95.1 126.6 89.6 126.6 84C126.6 78.4 125.5 72.9 123.3 67.8C121.2 62.8 118.2 58.4 114.4 54.6C110.6 50.8 106.1 47.8 101.2 45.7C96.2 43.5 90.7 42.3 85.1 42.3Z" fill="white"/>
<path d="M85.1 50.5C66.6 50.5 51.6 65.6 51.6 84.1C51.6 102.6 66.6 117.6 85.1 117.6C103.6 117.6 118.6 102.6 118.6 84.1C118.6 65.6 103.6 50.5 85.1 50.5ZM75.5 80L70.4 85.1H75.5V90.7C75.5 94.7 72.3 97.9 68.3 97.9C64.3 97.9 61.1 94.7 61.1 90.7V77.4C61.1 73.4 64.3 70.2 68.3 70.2C72.3 70.2 75.5 73.4 75.5 77.4V80ZM109.2 85.2V90.8C109.2 94.8 106 98 102 98C98 98 94.8 94.8 94.8 90.8V77.4C94.8 73.4 98 70.2 102 70.2C106 70.2 109.2 73.4 109.2 77.4V80L104.1 85.1L109.2 85.2Z" fill="white"/>
</g>
<defs>
<clipPath id="clip0_1_2">
<rect width="597.5" height="167.9" fill="white"/>
</clipPath>
</defs>
</svg>
