<svg width="25" height="25" viewBox="0 0 25 25" fill="none" xmlns="http://www.w3.org/2000/svg">
<path id="Vector" d="M12.5 24.5C8.99425 24.5 6.11775 24.0534 3.8705 23.1601C1.6235 22.2669 0.5 21.1174 0.5 19.7116V5C0.5 3.75375 1.66975 2.69225 4.00925 1.8155C6.3485 0.938501 9.17875 0.5 12.5 0.5C15.8212 0.5 18.6515 0.938501 20.9907 1.8155C23.3302 2.69225 24.5 3.75375 24.5 5V19.7116C24.5 21.1174 23.3765 22.2669 21.1295 23.1601C18.8822 24.0534 16.0057 24.5 12.5 24.5ZM12.5 7.83575C14.648 7.83575 16.8134 7.53613 18.9961 6.93688C21.1789 6.33788 22.4846 5.6855 22.9134 4.97975C22.5039 4.2355 21.2188 3.55287 19.058 2.93187C16.8975 2.31062 14.7115 2 12.5 2C10.3212 2 8.13813 2.2995 5.95063 2.8985C3.76313 3.4975 2.45588 4.15275 2.02888 4.86425C2.43663 5.61425 3.72462 6.297 5.89287 6.9125C8.06112 7.528 10.2635 7.83575 12.5 7.83575ZM12.5 15.3845C13.5308 15.3845 14.5433 15.3345 15.5375 15.2345C16.5318 15.1345 17.4823 14.986 18.389 14.789C19.2957 14.5918 20.138 14.346 20.9157 14.0518C21.6937 13.7578 22.3885 13.4261 23 13.0569V6.9125C22.3885 7.28175 21.6937 7.6135 20.9157 7.90775C20.138 8.202 19.2957 8.44763 18.389 8.64462C17.4823 8.84188 16.5318 8.9905 15.5375 9.0905C14.5433 9.1905 13.5308 9.2405 12.5 9.2405C11.4307 9.2405 10.3914 9.18563 9.38188 9.07588C8.37213 8.96638 7.41875 8.813 6.52175 8.61575C5.6245 8.41875 4.79325 8.17788 4.028 7.89313C3.2625 7.60863 2.5865 7.28175 2 6.9125V13.0569C2.5865 13.4261 3.2625 13.753 4.028 14.0375C4.79325 14.322 5.6245 14.5629 6.52175 14.7601C7.41875 14.9571 8.37213 15.1105 9.38188 15.2203C10.3914 15.3298 11.4307 15.3845 12.5 15.3845ZM12.5 23C13.7845 23 15.0061 22.9269 16.1649 22.7806C17.3236 22.6346 18.3645 22.4275 19.2875 22.1593C20.2105 21.891 20.9951 21.5708 21.6414 21.1985C22.2876 20.8265 22.7405 20.4241 23 19.9914V14.5569C22.3885 14.9261 21.6937 15.2578 20.9157 15.5518C20.138 15.846 19.2957 16.0918 18.389 16.289C17.4823 16.486 16.5318 16.6345 15.5375 16.7345C14.5433 16.8345 13.5308 16.8845 12.5 16.8845C11.4307 16.8845 10.3914 16.8298 9.38188 16.7203C8.37213 16.6105 7.41875 16.4571 6.52175 16.2601C5.6245 16.0629 4.79325 15.822 4.028 15.5375C3.2625 15.253 2.5865 14.9261 2 14.5569V20C2.2595 20.452 2.711 20.8577 3.3545 21.2173C3.99775 21.577 4.78087 21.891 5.70387 22.1593C6.62687 22.4275 7.66913 22.6346 8.83063 22.7806C9.99238 22.9269 11.2155 23 12.5 23Z" fill="white" fill-opacity="0.5"/>
</svg>
