<svg width="25" height="28" viewBox="0 0 25 28" fill="none" xmlns="http://www.w3.org/2000/svg">
<path id="Vector" d="M10.925 22.775L6.63838 18.4884L7.71725 17.4095L10.925 20.6172L17.2827 14.2595L18.3616 15.3384L10.925 22.775ZM2.92325 27.8461C2.23275 27.8461 1.65625 27.6149 1.19375 27.1524C0.73125 26.6899 0.5 26.1134 0.5 25.4229V6.26937C0.5 5.57887 0.73125 5.00237 1.19375 4.53987C1.65625 4.07737 2.23275 3.84612 2.92325 3.84612H5.57675V0.5H7.19225V3.84612H17.9233V0.5H19.4233V3.84612H22.0768C22.7673 3.84612 23.3438 4.07737 23.8063 4.53987C24.2688 5.00237 24.5 5.57887 24.5 6.26937V25.4229C24.5 26.1134 24.2688 26.6899 23.8063 27.1524C23.3438 27.6149 22.7673 27.8461 22.0768 27.8461H2.92325ZM2.92325 26.3461H22.0768C22.3078 26.3461 22.5194 26.25 22.7116 26.0577C22.9039 25.8655 23 25.6539 23 25.4229V12.2694H2V25.4229C2 25.6539 2.09613 25.8655 2.28838 26.0577C2.48063 26.25 2.69225 26.3461 2.92325 26.3461ZM2 10.769H23V6.26937C23 6.03837 22.9039 5.82675 22.7116 5.6345C22.5194 5.44225 22.3078 5.34612 22.0768 5.34612H2.92325C2.69225 5.34612 2.48063 5.44225 2.28838 5.6345C2.09613 5.82675 2 6.03837 2 6.26937V10.769Z" fill="white" fill-opacity="0.5"/>
</svg>
